<svg width="60" height="71" viewBox="0 0 60 71" fill="none" xmlns="http://www.w3.org/2000/svg">
<path d="M47.2341 55.7827C49.5564 53.0167 51.1946 49.7428 52.0163 46.2259C52.8379 42.709 52.8197 39.0481 51.9633 35.5396C51.1069 32.031 49.4363 28.7735 47.0868 26.0307C44.7373 23.2879 41.7748 21.1369 38.4394 19.7519C35.1039 18.367 31.4892 17.7869 27.8879 18.0588C24.2866 18.3307 20.7999 19.4468 17.7102 21.3168C14.6205 23.1868 12.0146 25.7582 10.1035 28.8226C8.19233 31.8871 7.02972 35.3586 6.70976 38.9559L16.5678 39.8327C16.7501 37.7833 17.4124 35.8056 18.5012 34.0598C19.5899 32.314 21.0745 30.8491 22.8347 29.7837C24.5949 28.7184 26.5813 28.0825 28.6329 27.9276C30.6846 27.7728 32.7439 28.1032 34.6441 28.8922C36.5443 29.6812 38.232 30.9066 39.5705 32.4692C40.909 34.0318 41.8608 35.8876 42.3487 37.8864C42.8366 39.8852 42.8469 41.9709 42.3788 43.9744C41.9108 45.978 40.9774 47.8431 39.6545 49.4189L47.2341 55.7827Z" fill="#EBEBFF"/>
<path d="M22.1553 5.17395e-05C21.8209 4.88131 23.4393 9.69547 26.6544 13.3835C29.8695 17.0715 34.418 19.3312 39.2993 19.6656C44.1806 20 48.9947 18.3816 52.6827 15.1665C56.3707 11.9513 58.6305 7.40285 58.9649 2.52159L22.1553 5.17395e-05Z" fill="#6070FF"/>
</svg>
